<?xml version="1.0" standalone="no"?>
<!DOCTYPE svg PUBLIC "-//W3C//DTD SVG 20010904//EN"
 "http://www.w3.org/TR/2001/REC-SVG-20010904/DTD/svg10.dtd">
<svg version="1.0" xmlns="http://www.w3.org/2000/svg"
 width="228.000000pt" height="237.000000pt" viewBox="0 0 228.000000 237.000000"
 preserveAspectRatio="xMidYMid meet">
<metadata>
Created by potrace 1.10, written by Peter Selinger 2001-2011
</metadata>
<g transform="translate(0.000000,237.000000) scale(0.100000,-0.100000)"
fill="#000000" stroke="none">
<path d="M656 2275 c-4 -54 -4 -101 1 -105 4 -5 218 -11 474 -15 l466 -7 7 97
c4 54 4 101 -1 105 -4 5 -218 11 -474 15 l-466 7 -7 -97z"/>
<path d="M428 1875 l3 -105 625 0 624 0 0 -621 0 -621 -522 7 c-288 4 -525 9
-526 10 -2 2 -6 119 -9 260 l-6 257 -101 -7 c-56 -4 -103 -9 -105 -11 -2 -2 0
-162 4 -357 l7 -354 697 -7 c383 -5 713 -5 734 -1 l37 7 0 824 0 824 -732 0
-733 0 3 -105z"/>
<path d="M2121 1563 l-53 -4 7 -412 c4 -227 9 -414 10 -415 2 -2 47 -1 99 3
l96 7 0 414 0 414 -52 -2 c-29 -1 -77 -3 -107 -5z"/>
<path d="M600 1405 l0 -105 308 0 309 0 6 -112 c4 -62 7 -184 7 -271 l0 -158
103 3 102 3 1 295 c1 162 -1 330 -3 373 l-5 77 -414 0 -414 0 0 -105z"/>
<path d="M0 945 l0 -295 105 0 105 0 0 295 0 295 -105 0 -105 0 0 -295z"/>
<path d="M785 121 c-4 -56 -6 -104 -4 -105 2 -2 183 -7 402 -11 l397 -7 0 106
0 106 -102 0 c-57 0 -234 3 -394 7 l-292 6 -7 -102z"/>
</g>
</svg>
