<?xml version="1.0" standalone="no"?>
<!DOCTYPE svg PUBLIC "-//W3C//DTD SVG 20010904//EN"
 "http://www.w3.org/TR/2001/REC-SVG-20010904/DTD/svg10.dtd">
<svg version="1.0" xmlns="http://www.w3.org/2000/svg"
 width="228.000000pt" height="237.000000pt" viewBox="0 0 228.000000 237.000000"
 preserveAspectRatio="xMidYMid meet">
<metadata>
Created by potrace 1.10, written by Peter Selinger 2001-2011
</metadata>
<g transform="translate(0.000000,237.000000) scale(0.100000,-0.100000)"
fill="#000000" stroke="none">
<path d="M657 2265 c-2 -55 -4 -101 -3 -101 0 -1 215 -4 476 -8 l475 -7 0 105
1 106 -472 2 -472 3 -5 -100z m718 57 l180 -7 3 -57 c3 -53 1 -58 -20 -62 -13
-3 -205 -2 -428 2 l-405 7 -3 59 c-2 36 1 62 8 66 12 7 350 3 665 -8z"/>
<path d="M425 1875 l0 -105 628 0 627 0 0 -620 0 -620 -147 0 c-82 0 -319 3
-529 7 l-381 6 -1 256 -2 256 -102 -2 -103 -3 3 -359 3 -359 732 -4 732 -3 3
827 3 826 -733 2 -733 1 0 -106z m1375 57 l45 -7 2 -510 c2 -280 -1 -631 -5
-780 l-7 -270 -680 4 c-374 2 -683 6 -687 10 -6 5 -11 356 -8 599 l0 33 58 -3
57 -3 5 -225 c3 -124 9 -233 14 -243 5 -10 17 -22 28 -28 23 -12 997 -26 1041
-15 57 14 57 9 57 669 0 601 0 604 -21 623 -20 18 -49 19 -623 24 l-601 5 -3
49 c-2 27 -1 55 2 62 5 12 110 14 643 13 351 0 658 -4 683 -7z"/>
<path d="M2075 1150 c4 -228 8 -416 9 -417 1 -2 46 0 99 4 85 5 97 8 97 24 0
16 -11 19 -77 21 l-78 3 -9 358 c-4 203 -4 363 0 367 5 5 44 10 87 11 73 2 77
3 77 25 0 22 -2 22 -106 21 l-106 -2 7 -415z"/>
<path d="M595 1405 l0 -105 318 0 319 0 -3 -42 c-1 -24 -2 -145 -1 -270 l2
-228 105 0 104 0 -4 338 c-2 185 -4 354 -4 375 l-1 37 -417 0 -418 0 0 -105z
m795 -258 c3 -195 1 -322 -5 -328 -13 -13 -102 -12 -110 2 -4 6 -7 109 -6 230
1 179 -2 226 -14 250 -9 16 -17 30 -18 31 -1 1 -135 5 -297 8 l-295 5 -3 49
c-2 27 -1 55 2 62 5 12 67 14 373 12 l368 -3 5 -318z"/>
<path d="M10 1245 c0 0 -1 -134 -3 -298 l-2 -297 80 0 c44 0 90 -3 103 -6 l22
-6 0 303 0 304 -100 0 c-55 0 -100 0 -100 0z m154 -61 c8 -20 8 -458 0 -478
-5 -12 -21 -16 -70 -16 l-64 0 0 248 c0 137 3 252 7 255 3 4 32 7 64 7 43 0
58 -4 63 -16z"/>
<path d="M783 116 l-2 -106 379 -2 c209 -1 388 -2 398 -2 15 -1 17 11 20 102
l3 102 -123 0 c-68 0 -247 3 -398 6 l-275 7 -2 -107z m735 49 c8 -3 12 -27 12
-76 l0 -72 -82 7 c-70 6 -501 25 -590 26 -27 0 -28 1 -28 58 0 32 2 61 5 64 6
6 663 -1 683 -7z"/>
</g>
</svg>
